<?xml version="1.0" encoding="UTF-8"?>
<svg width="97px" height="96px" viewBox="0 0 97 96" version="1.1" xmlns="http://www.w3.org/2000/svg" xmlns:xlink="http://www.w3.org/1999/xlink">
    <title>codepen</title>
    <g id="Page-1" stroke="none" stroke-width="1" fill="none" fill-rule="evenodd">
        <g id="codepen" fill="#FFFFFF" fill-rule="nonzero">
            <path d="M48.0245115,95.9999575 C47.1076239,96.0039383 46.2113275,95.7281548 45.4552989,95.2093871 L1.97631734,66.4342066 C1.46432326,66.1479882 1.03009513,65.7408993 0.711474244,65.2484162 L0.711474244,65.2484162 L0.711474244,65.0507845 C0.248473064,64.2880374 0.00247257876,63.413369 0,62.5210983 L0,33.3901806 C0.00764856764,32.511067 0.253530932,31.6504787 0.711474244,30.9000208 L0.711474244,30.6628627 C1.04456778,30.1932102 1.47624707,29.8020009 1.97631734,29.5165986 L45.4552989,0.741418095 C47.0254693,-0.247139365 49.0235536,-0.247139365 50.593724,0.741418095 L94.0727056,29.5165986 C94.5727759,29.8020009 95.0044551,30.1932102 95.3375487,30.6628627 L95.3375487,30.6628627 C95.3542837,30.7276771 95.3542837,30.79568 95.3375487,30.8604944 C95.795492,31.6109524 96.0413744,32.4715407 96.0490229,33.3506543 L96.0490229,62.4815719 C96.0465503,63.3738427 95.8005499,64.2485111 95.3375487,65.0112581 L95.3375487,65.2088899 C95.0088863,65.6928892 94.5768806,66.0978945 94.0727056,66.3946803 L50.593724,95.1698608 C49.8422937,95.7026487 48.9456266,95.9923412 48.0245115,95.9999575 L48.0245115,95.9999575 Z M52.5700414,65.0112581 L52.5700414,82.995746 L83.3215392,62.5606246 L69.7640022,53.4300385 L52.5700414,65.0112581 Z M12.7274837,62.5606246 L43.4789816,82.995746 L43.4789816,65.0112581 L26.2850207,53.4300385 L12.7274837,62.5606246 Z M34.4274481,47.9754026 L48.0245115,57.1059888 L61.6215748,47.9754026 L48.0245115,38.8052901 L34.4274481,47.9754026 Z M77.9064297,47.9754026 L86.9579631,54.06246 L86.9579631,41.8883452 L77.9064297,47.9754026 Z M9.09105978,41.8883452 L9.09105978,54.06246 L18.1425932,47.9754026 L9.09105978,41.8883452 Z M52.5700414,30.9395471 L69.7640022,42.4812404 L83.3215392,33.3901806 L52.5700414,12.9550593 L52.5700414,30.9395471 Z M12.7274837,33.3901806 L26.2850207,42.4812404 L43.4789816,30.9395471 L43.4789816,12.9550593 L12.7274837,33.3901806 Z" id="Shape"></path>
        </g>
    </g>
</svg>