<?xml version="1.0" encoding="UTF-8"?>
<svg width="97px" height="96px" viewBox="0 0 97 96" version="1.1" xmlns="http://www.w3.org/2000/svg" xmlns:xlink="http://www.w3.org/1999/xlink">
    <title>facebook</title>
    <g id="Page-1" stroke="none" stroke-width="1" fill="none" fill-rule="evenodd">
        <g id="facebook" fill="#FFFFFF" fill-rule="nonzero">
            <path d="M48.241206,0 C74.7738693,0 96.4824121,21.7085427 96.4824121,48.241206 C96.4824121,72.120603 79.1155779,91.8994975 56.201005,96 L55.998501,95.83722 C56.1464043,95.8118275 56.2943077,95.7856855 56.4422111,95.758794 L56.4422111,61.7487437 L67.0552764,61.7487437 L69.2261307,48.241206 L56.4422111,48.241206 L56.4422111,38.8341709 C56.4422111,34.9748744 57.8894472,32.080402 63.678392,32.080402 L69.9497487,32.080402 L69.9497487,19.7788945 C66.5728643,19.2964824 62.7135678,18.8140704 59.3366834,18.8140704 C48.241206,18.8140704 40.5226131,25.5678392 40.5226131,37.6281407 L40.5226131,48.241206 L28.4623116,48.241206 L28.4623116,61.7487437 L40.5226131,61.7487437 L40.5226131,95.758794 L40.567,95.766 L40.281407,96 C17.3668342,91.8994975 0,72.120603 0,48.241206 C0,21.7085427 21.7085427,0 48.241206,0 Z" id="Combined-Shape"></path>
        </g>
    </g>
</svg>