<?xml version="1.0" encoding="UTF-8"?>
<svg width="96px" height="96px" viewBox="0 0 96 96" version="1.1" xmlns="http://www.w3.org/2000/svg" xmlns:xlink="http://www.w3.org/1999/xlink">
    <title>linkedin</title>
    <g id="Page-1" stroke="none" stroke-width="1" fill="none" fill-rule="evenodd">
        <g id="linkedin" fill="#E4E4E4" fill-rule="nonzero">
            <path d="M89.0057143,0 L6.99428571,0 C3.13144838,0 0,3.13144838 0,6.99428571 L0,89.0057143 C0,92.8685516 3.13144838,96 6.99428571,96 L89.0057143,96 C92.8685516,96 96,92.8685516 96,89.0057143 L96,6.99428571 C96,3.13144838 92.8685516,0 89.0057143,0 Z M27.4285714,82.2857143 L13.7142857,82.2857143 L13.7142857,36 L27.4285714,36 L27.4285714,82.2857143 Z M20.5714286,28.6285714 C16.1215914,28.6285714 12.5142857,25.0212657 12.5142857,20.5714286 C12.5142857,16.1215914 16.1215914,12.5142857 20.5714286,12.5142857 L20.5714286,12.5142857 C25.0212657,12.5142857 28.6285714,16.1215914 28.6285714,20.5714286 C28.6285714,25.0212657 25.0212657,28.6285714 20.5714286,28.6285714 Z M82.2857143,82.2857143 L68.5714286,82.2857143 L68.5714286,57.96 C68.5714286,50.5714286 63.8914286,47.4857143 60,47.4857143 C57.1807022,47.3920259 54.4534991,48.4961592 52.4934499,50.5248101 C50.5334007,52.5534611 49.5237032,55.3170199 49.7142857,58.1314286 L49.7142857,82.2857143 L36,82.2857143 L36,36 L48.9085714,36 L48.9085714,42.4971429 L49.0971429,42.4971429 C50.4685714,39.6857143 56.7085714,35.0057143 64.7485714,35.0057143 C72.7885714,35.0057143 82.2857143,40.44 82.2857143,54.4457143 L82.2857143,82.2857143 Z" id="Shape"></path>
        </g>
    </g>
</svg>