<?xml version="1.0" encoding="UTF-8"?>
<svg width="96px" height="96px" viewBox="0 0 96 96" version="1.1" xmlns="http://www.w3.org/2000/svg" xmlns:xlink="http://www.w3.org/1999/xlink">
    <title>dribbble</title>
    <g id="Page-1" stroke="none" stroke-width="1" fill="none" fill-rule="evenodd">
        <g id="dribbble" fill="#E4E4E4">
            <path d="M0,47.9911385 C0,21.4995692 21.4840985,0 48,0 C74.5177846,0 96,21.5189538 96,48.0088615 C96,74.5004308 74.5159385,96 48,96 L44.1064615,96 L44.1064615,95.8268308 C19.4278154,93.8436923 0,73.1734154 0,47.9911385 Z M49.1937231,88.1970462 C70.8546462,87.5652923 88.2129231,69.8034462 88.2129231,48.0088615 C88.2129231,25.8128123 70.2114462,7.7856 48,7.7856 C25.7867446,7.7856 7.78700308,25.7974523 7.78700308,47.9911385 C7.78700308,70.1841231 25.8031015,88.1970462 48,88.1970462 L49.1937231,88.1970462 Z" id="Shape"></path>
            <path d="M28.5662769,12.8256 C28.0327385,12.6576369 27.4792615,12.4834708 26.9025231,12.2878892 L29.4044308,4.91512615 C29.6344615,4.99310769 30.0483692,5.12507077 30.5313231,5.27911385 C31.3993846,5.55588923 32.4912,5.904 33.1414154,6.13849846 L33.1761231,6.15108923 L33.2108308,6.16434462 C33.3888,6.23235692 33.5796923,6.30446769 33.7794462,6.38008615 C34.7867077,6.76102154 36.0295385,7.23101538 37.0674462,7.71640615 L37.1136,7.73796923 L37.3192615,7.8408 C37.8077538,8.06850462 38.5410462,8.41809231 39.1521231,8.70926769 C39.4951385,8.87276308 39.7993846,9.01779692 39.9998769,9.11254154 L40.0929231,9.15636923 L40.1833846,9.20507077 C40.2044308,9.21640615 40.2291692,9.22962462 40.2568615,9.24454154 C40.4673231,9.35726769 40.8598154,9.56728615 41.2364308,9.79742769 L41.3398154,9.86056615 L41.3689846,9.88102154 C41.4114462,9.90576 41.4697846,9.93880615 41.5417846,9.97883077 C41.6045538,10.0138338 41.6651077,10.0471015 41.7256615,10.0803692 C41.7374769,10.0869046 41.7492923,10.09344 41.7611077,10.0999754 C41.7943385,10.1183262 41.8323692,10.1391877 41.8663385,10.1581292 L41.8689231,10.1594585 C41.8859077,10.1690954 41.9302154,10.1936492 41.9808,10.2233354 C42.0269538,10.2497723 42.0974769,10.2901292 42.1860923,10.3406769 C42.4567385,10.4951631 42.8942769,10.7448738 43.3008,10.9827692 C43.7191385,11.2278277 44.3579077,11.6052923 44.8305231,11.9366031 C45.3367385,12.2475692 45.8935385,12.6331569 46.2642462,12.8898831 C46.3310769,12.9361477 46.3916308,12.9782031 46.4448,13.0149046 C46.7298462,13.1884431 47.0089846,13.3852062 47.2032,13.5243323 C47.4808615,13.7233846 47.7832615,13.9488738 48.0590769,14.1561969 C48.1864615,14.2519754 48.3027692,14.3398523 48.4128,14.4228923 C48.5590154,14.5333292 48.6941538,14.6352738 48.8285538,14.7359631 C48.9396923,14.8190769 49.0323692,14.8875692 49.1069538,14.9418462 C49.1438769,14.9686892 49.1726769,14.9892554 49.1940923,15.0044677 C49.2125538,15.0175015 49.2214154,15.0233723 49.2217846,15.0237046 L49.3233231,15.0913108 L49.4211692,15.1657108 C53.7182769,18.4392 57.5449846,22.2851077 60.8112,26.5713231 L60.8145231,26.5753846 L60.8174769,26.5794462 C64.4281846,31.3432615 67.2790154,36.6313846 69.2562462,42.2592 C75.1469538,58.7124923 73.4145231,77.7212308 64.1560615,92.7264 L57.5287385,88.6386462 C65.5074462,75.7074462 67.0438154,59.1714462 61.9214769,44.8733538 L61.9170462,44.8615385 L61.9129846,44.8497231 C60.2064,39.9888 57.7421538,35.4132923 54.6140308,31.2852923 C51.7838769,27.5723077 48.4788923,24.2472 44.7803077,21.4186338 C44.5757538,21.2767385 44.3490462,21.1083692 44.1633231,20.9695754 C44.0230154,20.8646031 43.8579692,20.7400246 43.6951385,20.6172185 C43.5858462,20.5347692 43.4776615,20.4530585 43.3787077,20.3786954 C43.1113846,20.1776862 42.8684308,19.9970215 42.6675692,19.8529108 C42.4881231,19.7245292 42.4135385,19.67712 42.4142769,19.6763815 C42.4142769,19.6763446 42.4146462,19.6764923 42.4150154,19.6767877 L42.2990769,19.6116185 L42.1639385,19.5199385 C41.9652923,19.3849477 41.7880615,19.2624 41.6256,19.1500431 C41.2692923,18.9033969 40.9838769,18.7059323 40.6940308,18.5339815 L40.5046154,18.4214031 L40.3288615,18.2881477 C40.3399385,18.2964554 40.3388308,18.2959015 40.3236923,18.2856369 C40.2945231,18.2664 40.2144,18.2131569 40.0644923,18.12 C39.8669538,17.9973785 39.6243692,17.8526769 39.3651692,17.70096 C38.9977846,17.4857723 38.6632615,17.2948431 38.3985231,17.1438277 C38.2748308,17.0733415 38.1666462,17.0115692 38.0772923,16.9600985 L38.0695385,16.9554831 C38.0555077,16.94784 38.0355692,16.9367262 38.0052923,16.9200738 C37.9960615,16.9149046 37.9857231,16.9093292 37.9750154,16.9033846 C37.9148308,16.8703015 37.8347077,16.8261046 37.7527385,16.7805785 C37.6571077,16.7273723 37.5411692,16.6619815 37.4281846,16.5958892 C37.3661538,16.5597046 37.2509538,16.4919138 37.1220923,16.4082092 C36.9636923,16.3137231 36.7934769,16.2223385 36.5911385,16.1135631 C36.5878154,16.1119385 36.5848615,16.1103138 36.5819077,16.1087262 C36.3396923,15.9940431 36.0384,15.8503015 35.7182769,15.6976985 C35.1160615,15.4106215 34.4481231,15.09216 33.9843692,14.8764923 L33.9345231,14.8532677 L33.7248,14.7485169 C32.9896615,14.40768 32.1094154,14.0740062 31.1235692,13.7002338 C30.9094154,13.6190031 30.6900923,13.5358523 30.4663385,13.4503385 C29.8585846,13.2322338 29.2275692,13.0336615 28.5662769,12.8256 Z" id="Shape"></path>
            <path d="M44.9627077,31.3547077 C56.7142154,29.2327385 67.5585231,22.6414892 74.9752615,13.2592985 L81.0841846,18.0869908 C72.5132308,28.9296 60.0011077,36.5508923 46.3454769,39.0166154 L46.3447385,39.0166154 C39.5453538,40.2424615 32.5591385,40.2838154 25.7399631,39.0336 C18.9392862,37.8214154 12.3769108,35.3800615 6.44171077,31.8158769 L10.4511508,25.1416615 C15.5655877,28.2129231 21.2339446,30.3230769 27.1159385,31.3705846 L27.1259077,31.3724308 L27.1362462,31.3742769 C32.9996308,32.4502154 39.0439385,32.4217846 44.9619692,31.3547077" id="Path"></path>
            <path d="M24.1591015,87.4667077 C30.8071385,53.5436308 65.3782154,34.8092308 93.6516923,42.5154462 L91.6035692,50.0267077 C67.6032,43.4854154 37.5611077,59.5709538 31.8007385,88.9635692 L24.1591015,87.4667077 Z" id="Path"></path>
        </g>
    </g>
</svg>